<svg xmlns="http://www.w3.org/2000/svg">
	<defs>
		<style>
			svg:not(:target) {
				display: none;
			}
		</style>
	</defs>
	<symbol id="reliability" width="48" height="48" viewBox="0 0 48 48" fill="none">
		<path d="M30.1425 6H17.8575C13.5 6 12.5375 8.4284 11.9775 11.4052L10 22H38L36.0225 11.4052C35.4625 8.4284 34.5 6 30.1425 6Z" stroke="#00A83B" stroke-width="1.5" stroke-linecap="round" stroke-linejoin="round"/>
		<path d="M41.9842 38.0363C42.1823 40.1636 40.4901 42 38.3298 42H34.9454C33.0011 42 32.7311 41.1637 32.3891 40.1273L32.029 39.0364C31.525 37.5454 31.2009 36.5455 28.6086 36.5455H19.3914C16.7991 36.5455 16.4211 37.6728 15.971 39.0364L15.611 40.1273C15.2689 41.1637 14.9989 42 13.0547 42H9.67023C7.50996 42 5.81775 40.1636 6.01577 38.0363L7.0239 26.9636C7.27593 24.2364 7.79799 22 12.5146 22H35.4854C40.202 22 40.7241 24.2364 40.9762 26.9636L41.9842 38.0363Z" stroke="#00A83B" stroke-width="1.5" stroke-linecap="round" stroke-linejoin="round"/>
		<path d="M9 17H7" stroke="#00A83B" stroke-width="1.5" stroke-linecap="round" stroke-linejoin="round"/>
		<path d="M41.0001 17H39" stroke="#00A83B" stroke-width="1.5" stroke-linecap="round" stroke-linejoin="round"/>
		<g opacity="0.4">
		<path d="M23.9619 6V9.7895" stroke="#00A83B" stroke-width="1.5" stroke-linecap="round" stroke-linejoin="round"/>
		<path d="M21.2627 9.78906H26.6627" stroke="#00A83B" stroke-width="1.5" stroke-linecap="round" stroke-linejoin="round"/>
		</g>
		<path opacity="0.4" d="M14 28H19" stroke="#00A83B" stroke-width="1.5" stroke-linecap="round" stroke-linejoin="round"/>
		<path opacity="0.4" d="M29 28H34" stroke="#00A83B" stroke-width="1.5" stroke-linecap="round" stroke-linejoin="round"/>
	</symbol>
	<symbol id="comfort" width="48" height="48" viewBox="0 0 48 48" fill="none">
		<path d="M23.5563 29.4893C23.8014 29.3024 24.1994 29.3028 24.4438 29.4893L29.6801 33.4837C30.6578 34.2296 31.1461 33.8624 30.7685 32.6572L28.7518 26.2181C28.6574 25.9167 28.7808 25.5213 29.0261 25.336L34.2789 21.3655C35.2598 20.6241 35.0766 20.0253 33.8632 20.0282L27.3806 20.0429C27.0772 20.0436 26.7554 19.7988 26.6626 19.4978L24.6728 13.0495C24.3013 11.8454 23.6998 11.8426 23.3274 13.0495L21.3376 19.4978C21.2445 19.7996 20.9223 20.0436 20.6196 20.0429L14.137 20.0282C12.9265 20.0253 12.738 20.6224 13.7212 21.3655L18.9741 25.336C19.2199 25.5217 19.3425 25.9175 19.2483 26.2181L17.2317 32.6572C16.855 33.8595 17.3401 34.2314 18.3201 33.4837L23.5563 29.4893ZM24.0001 30.5688L18.9662 34.4089C17.1266 35.8122 15.4826 34.56 16.1901 32.3009L18.1289 26.1106L13.079 22.2936C11.2336 20.8987 11.8649 18.8776 14.1394 18.8827L20.3715 18.897L22.2844 12.6979C22.9834 10.4325 25.0177 10.4355 25.7158 12.6979L27.6287 18.897L33.8608 18.8827C36.1383 18.8776 36.7641 20.9006 34.9212 22.2936L29.8713 26.1106L31.8101 32.3009C32.5186 34.5631 30.8711 35.8103 29.0339 34.4089L24.0001 30.5688Z" fill="#00A83B"/>
		<path d="M24 44C12.9543 44 4 35.0457 4 24C4 12.9543 12.9543 4 24 4C35.0457 4 44 12.9543 44 24C44 35.0457 35.0457 44 24 44ZM24 42.9744C34.4792 42.9744 42.9744 34.4792 42.9744 24C42.9744 13.5208 34.4792 5.02564 24 5.02564C13.5208 5.02564 5.02565 13.5208 5.02565 24C5.02565 34.4792 13.5208 42.9744 24 42.9744Z" fill="#00A83B" fill-opacity="0.4"/>
	</symbol>
	<symbol id="safety" width="48" height="48" viewBox="0 0 48 48" fill="none">
		<path opacity="0.4" d="M13.5 23C11.621 23 9.78435 22.4429 8.22205 21.399C6.65983 20.3551 5.44217 18.8714 4.72314 17.1355C4.00411 15.3996 3.81599 13.4895 4.18254 11.6467C4.5491 9.80387 5.45389 8.11112 6.78246 6.78249C8.11109 5.45389 9.80384 4.5491 11.6466 4.18254C13.4895 3.81599 15.3996 4.00411 17.1355 4.72315C18.8713 5.44218 20.355 6.65983 21.399 8.22208C22.4428 9.78438 23 11.6211 23 13.5001C22.998 16.019 21.9965 18.4342 20.2153 20.2154C18.4341 21.9966 16.0189 22.9981 13.5 23ZM13.5 5.47287C11.9124 5.47287 10.3604 5.94365 9.04039 6.82569C7.7203 7.70773 6.69147 8.96141 6.0839 10.4282C5.47634 11.8949 5.31738 13.5089 5.62711 15.066C5.93683 16.6231 6.70137 18.0535 7.82399 19.1761C8.9466 20.2987 10.3768 21.0632 11.934 21.3729C13.4911 21.6826 15.105 21.5237 16.5719 20.9161C18.0386 20.3086 19.2923 19.2797 20.1743 17.9597C21.0563 16.6396 21.5271 15.0877 21.5271 13.5001C21.5261 11.3707 20.6803 9.3288 19.1754 7.82244C17.6704 6.3161 15.6293 5.46844 13.5 5.46551V5.47287Z" fill="#00A83B"/>
		<path opacity="0.4" d="M38.0819 20.6543C37.9894 20.5063 37.9746 20.3351 38.0408 20.1784C38.107 20.0217 38.2488 19.8923 38.4349 19.8186L42.8878 18.0569C43.0731 17.9893 43.2843 17.9816 43.4766 18.0355C43.6689 18.0895 43.8272 18.2009 43.9179 18.346C44.0087 18.4911 44.0249 18.6586 43.9629 18.813C43.901 18.9674 43.7659 19.0966 43.5862 19.1732L39.1333 20.9349C38.9471 21.0084 38.7316 21.0202 38.5345 20.9676C38.3374 20.9149 38.1746 20.8023 38.0819 20.6543Z" fill="#00A83B"/>
		<path d="M30.4185 43.5378L23.0792 27.0353C23.0309 26.9453 23.0041 26.8474 23.0004 26.7479C22.9968 26.6482 23.0164 26.5491 23.0581 26.4564C23.0997 26.3638 23.1625 26.2798 23.2425 26.2097C23.3224 26.1396 23.4179 26.0849 23.5228 26.0489C23.6278 26.0129 23.7401 25.9965 23.8526 26.0006C23.965 26.0048 24.0752 26.0295 24.1765 26.0732C24.2777 26.1168 24.3676 26.1785 24.4406 26.2542C24.5137 26.33 24.5684 26.4184 24.6011 26.5138L31.9444 43.0126C32.023 43.1918 32.0181 43.3912 31.9307 43.5672C31.8432 43.7431 31.6804 43.8811 31.478 43.9508C31.2757 44.0204 31.0504 44.0161 30.8517 43.9386C30.653 43.8612 30.4971 43.717 30.4185 43.5378Z" fill="#00A83B" fill-opacity="0.4"/>
		<path d="M6.40754 43.2809C5.66294 42.7317 5.17067 41.921 5.03675 41.0235C4.90283 40.126 5.13798 39.2133 5.69154 38.4822L13.7922 27.7108C14.3103 27.0164 15.0629 26.5199 15.9193 26.3075C16.7758 26.095 17.682 26.1802 18.4805 26.5481L26.2575 30.1581L30.2564 22.2624C30.7065 21.3556 31.4932 20.647 32.4592 20.278C33.4251 19.9091 34.4991 19.9073 35.4665 20.2727C35.9807 20.4739 36.447 20.7753 36.8361 21.1583C37.2252 21.5413 37.529 21.9977 37.7287 22.4993C37.9283 23.0008 38.0195 23.5367 37.9965 24.0738C37.9736 24.6109 37.8371 25.1377 37.5954 25.6215L32.3549 36.0459C31.8141 37.1123 30.8632 37.9305 29.7067 38.3247C28.5502 38.7187 27.2802 38.6574 26.1699 38.1536L17.974 34.3848L11.4424 42.6386C10.8625 43.3708 10.0063 43.8498 9.06217 43.9702C8.11801 44.0907 7.16311 43.8427 6.40754 43.2809ZM15.0223 28.5819L6.92168 39.3423C6.61804 39.7689 6.49673 40.2929 6.58317 40.8044C6.66959 41.3159 6.95713 41.775 7.38529 42.0855C7.81354 42.3959 8.34912 42.5335 8.87982 42.4694C9.41044 42.4053 9.89479 42.1445 10.2313 41.7417L17.1399 33.0116C17.246 32.8771 17.3967 32.782 17.5666 32.7424C17.7365 32.7027 17.9153 32.7208 18.073 32.7938L26.8097 36.8211C27.5605 37.1661 28.4213 37.2105 29.2055 36.9444C29.9897 36.6784 30.6342 36.1234 30.9991 35.3998L36.2129 24.9792C36.3614 24.6783 36.4447 24.3511 36.458 24.0177C36.4713 23.6844 36.4141 23.352 36.29 23.0409C36.1659 22.7298 35.9774 22.4465 35.7362 22.2085C35.4951 21.9706 35.2063 21.7829 34.8875 21.657C34.2758 21.4331 33.5992 21.4419 32.9937 21.6815C32.3883 21.9212 31.8989 22.374 31.6236 22.949L27.2895 31.4797C27.2016 31.6549 27.0458 31.7893 26.856 31.8536C26.6662 31.9179 26.4579 31.9069 26.2765 31.823L17.8216 27.8954C17.3458 27.675 16.8053 27.623 16.294 27.7484C15.7827 27.8738 15.3328 28.1687 15.0223 28.5819Z" fill="#00A83B"/>
		<path d="M36 19C35.0111 19 34.0444 18.7067 33.2221 18.1573C32.3999 17.6079 31.759 16.827 31.3806 15.9134C31.0021 14.9998 30.9032 13.9944 31.0961 13.0246C31.289 12.0547 31.7652 11.1637 32.4645 10.4645C33.1637 9.76527 34.0546 9.28906 35.0245 9.09606C35.9945 8.90315 36.9998 9.00219 37.9134 9.3806C38.8271 9.75909 39.6079 10.3999 40.1573 11.2222C40.7068 12.0444 41 13.0111 41 14C41 15.3261 40.4732 16.5979 39.5355 17.5355C38.5979 18.4732 37.3261 19 36 19ZM36 10.5385C35.3153 10.5385 34.6461 10.7415 34.0769 11.1219C33.5076 11.5022 33.064 12.0428 32.802 12.6754C32.54 13.3079 32.4714 14.0038 32.605 14.6753C32.7386 15.3468 33.0682 15.9636 33.5523 16.4477C34.0364 16.9317 34.6532 17.2614 35.3247 17.395C35.9961 17.5286 36.6921 17.46 37.3247 17.198C37.9572 16.9361 38.4978 16.4923 38.8781 15.9231C39.2586 15.3539 39.4616 14.6847 39.4616 14C39.4616 13.082 39.0968 12.2015 38.4477 11.5523C37.7985 10.9032 36.9181 10.5385 36 10.5385Z" fill="#00A83B"/>
	</symbol>
	<symbol id="accuracy" width="48" height="48" viewBox="0 0 48 48" fill="none">
		<path d="M39.5736 37.7318H26.4841C26.3344 37.7718 26.203 37.8553 26.1094 37.9696C26.0159 38.0839 25.9654 38.223 25.9654 38.3659C25.9654 38.5088 26.0159 38.6479 26.1094 38.7622C26.203 38.8765 26.3344 38.9599 26.4841 39H40.2796C40.4707 39 40.6539 38.9304 40.7891 38.8065C40.9241 38.6826 41 38.5146 41 38.3394C40.9962 34.5386 39.3482 30.8944 36.4176 28.2062C33.487 25.5179 29.513 24.0053 25.3674 24C23.0226 23.9949 20.7071 24.4782 18.5957 25.4135C18.4859 25.4312 18.3821 25.472 18.2924 25.5327C18.2027 25.5935 18.1297 25.6724 18.0789 25.7635C18.0282 25.8545 18.0012 25.9551 18 26.0573C17.9989 26.1595 18.0236 26.2605 18.0724 26.3525C18.121 26.4445 18.1923 26.5249 18.2807 26.5872C18.369 26.6496 18.4719 26.6923 18.5813 26.7121C18.6906 26.7318 18.8036 26.728 18.9111 26.701C19.0186 26.6739 19.1178 26.6244 19.2009 26.5562C21.1236 25.7044 23.2321 25.264 25.3674 25.2682C29.0267 25.2796 32.5413 26.5795 35.1851 28.8989C37.829 31.2185 39.4 34.3806 39.5736 37.7318Z" fill="#00A83B"/>
		<path d="M35.9462 9.78614C36.0116 9.64635 36.0175 9.49163 35.9631 9.34851C35.9086 9.20539 35.7971 9.08275 35.6476 9.00159L25.8852 4.08686C25.7688 4.02996 25.6367 4 25.5023 4C25.3679 4 25.2359 4.02996 25.1195 4.08686L15.3647 9.00159C15.204 9.08527 15.0853 9.21625 15.0317 9.36941C14.9779 9.52254 14.993 9.68716 15.0737 9.83152L16.4213 12.3278C15.9838 13.4413 15.8368 14.622 15.9905 15.7883C16.1442 16.9545 16.5948 18.0787 17.3115 19.0832C18.0281 20.0876 18.9937 20.9485 20.1413 21.6062C21.2891 22.264 22.5917 22.703 23.9592 22.893C25.3268 23.083 26.7268 23.0194 28.0625 22.7067C29.3983 22.394 30.638 21.8395 31.6961 21.0817C32.7541 20.3238 33.6054 19.3805 34.1912 18.3169C34.7769 17.2534 35.0831 16.0948 35.0886 14.9213C35.0893 14.0667 34.9291 13.2175 34.614 12.4056L35.9462 9.78614ZM17.3937 14.863C17.3953 14.3122 17.475 13.7637 17.6311 13.229H33.3812C33.6519 14.1715 33.6837 15.1518 33.4746 16.1054C33.2654 17.059 32.8201 17.9643 32.1679 18.7617C31.5156 19.5589 30.6713 20.2302 29.6905 20.7312C28.7097 21.2322 27.6148 21.5515 26.4777 21.6682C25.3406 21.7848 24.1872 21.6962 23.0935 21.4081C21.9998 21.12 20.9906 20.6389 20.1324 19.9966C19.2742 19.3542 18.5864 18.5652 18.1143 17.6815C17.6423 16.7977 17.3967 15.8394 17.3937 14.8694V14.863ZM34.3383 9.79261L33.1974 11.9842H17.8838L16.6893 9.78614L25.4793 5.35121L34.3383 9.79261Z" fill="#00A83B"/>
		<path opacity="0.4" d="M8.06093 40.7079C8.69239 41.7158 9.56998 42.5468 10.6111 43.1226C11.6523 43.6986 12.823 44.0005 14.013 44C15.0969 43.9971 16.1652 43.743 17.134 43.2577C18.1028 42.7724 18.9458 42.0691 19.5965 41.2032C20.2473 40.3372 20.6881 39.3322 20.8843 38.2672C21.0804 37.2022 21.0267 36.1062 20.7272 35.0655C20.4277 34.0248 19.8905 33.0676 19.1581 32.2695C18.4257 31.4712 17.518 30.8537 16.5063 30.4655C15.4946 30.0771 14.4065 29.9287 13.3276 30.0318C12.2488 30.1348 11.2086 30.4866 10.2888 31.0593C8.71534 32.0458 7.59732 33.6151 7.17969 35.4237C6.7621 37.2322 7.07899 39.1324 8.06093 40.7079ZM19.6498 36.0613H8.36965C8.50039 35.2622 8.80032 34.5002 9.24928 33.826C9.69825 33.152 10.286 32.5814 10.9733 32.1523C11.7717 31.6543 12.6806 31.3608 13.6197 31.2976C14.5588 31.2344 15.4989 31.4036 16.3569 31.7902C17.2149 32.1767 17.9643 32.7687 18.5386 33.5137C19.113 34.2588 19.4947 35.1337 19.6498 36.0613ZM17.0394 41.841C16.3552 42.2669 15.5895 42.5455 14.7915 42.659V37.3487H19.7102C19.6538 38.2571 19.3807 39.1388 18.9138 39.9204C18.4469 40.7019 17.7996 41.3604 17.0261 41.841H17.0394ZM8.31593 37.3487H13.5232V42.7127C12.1542 42.5952 10.8737 41.9879 9.91693 41.0025C8.9602 40.017 8.39176 38.7195 8.31593 37.3487Z" fill="#00A83B"/>
	</symbol>
	<symbol id="logo" viewBox="0 0 40 40">
		<path d="M19.5485 4.58984L19.5485 1.04886L18.0862 1.04886L18.0862 0.0849247L22.1846 0.0849244L22.1846 1.04886L20.7223 1.04886L20.7223 4.58984L19.5485 4.58984Z" fill="#00A83B"/>
<path d="M24.9728 5.26296L26.9274 1.20427L29.2847 2.33952C29.584 2.48362 29.8066 2.66116 29.9525 2.87214C30.1003 3.07919 30.176 3.30476 30.1796 3.54919C30.1891 3.79148 30.1359 4.0328 30.0202 4.27296C29.8951 4.53296 29.7221 4.73591 29.5014 4.88198C29.2865 5.02591 29.0432 5.1028 28.7716 5.1128L28.813 7.1123L27.6314 6.54329L27.6464 4.78919L26.7189 4.34263L26.0303 5.77231L24.9728 5.26296ZM27.0972 3.55673L28.1902 4.08313C28.336 4.15329 28.4749 4.16198 28.6071 4.10919C28.7451 4.05444 28.853 3.94624 28.9308 3.78477C28.982 3.67837 29.0059 3.57837 29.0025 3.4846C28.9992 3.39067 28.9716 3.30706 28.9196 3.23345C28.8696 3.15608 28.7934 3.09263 28.691 3.04329L27.598 2.51706L27.0972 3.55673Z" fill="#00A83B"/>
<path d="M30.6154 8.52085L35.1923 7.03478L36.0713 8.13708L33.604 12.2686L32.8231 11.2894L33.2656 10.5927L32.1454 9.1879L31.3676 9.46429L30.6154 8.52085ZM33.0081 8.86052L33.7727 9.81921L34.3157 8.97511C34.3424 8.93151 34.3749 8.87757 34.4133 8.81347C34.4577 8.75003 34.5026 8.68364 34.5477 8.61396C34.599 8.54511 34.6504 8.47626 34.7017 8.40741C34.753 8.33856 34.7957 8.27642 34.83 8.22118L34.8014 8.18528C34.7255 8.22347 34.6357 8.26151 34.5318 8.29954C34.4307 8.34101 34.3283 8.38085 34.2244 8.41888C34.1233 8.46036 34.0338 8.49544 33.9559 8.52397L33.0081 8.86052Z" fill="#00A83B"/>
<path d="M34.618 14.5342L39.01 13.5317L39.242 14.5481L37.5674 16.6119C37.5401 16.6496 37.4999 16.6991 37.4466 16.7605C37.3944 16.8263 37.3395 16.8904 37.282 16.9528C37.2288 17.0143 37.1854 17.0601 37.1519 17.0901L37.1656 17.1205C37.2594 17.0992 37.3489 17.0787 37.4341 17.0592C37.5236 17.0389 37.5982 17.0219 37.6579 17.0082L39.6972 16.5428L39.9395 17.604L35.5475 18.6064L35.3169 17.5963L37.0783 15.4119C37.1338 15.341 37.192 15.2717 37.2528 15.204C37.3145 15.1405 37.3654 15.0886 37.4055 15.0481L37.3918 15.0176C37.3236 15.0332 37.2533 15.0491 37.1809 15.0656C37.1127 15.0812 37.0551 15.0943 37.0083 15.1051L34.8602 15.5953L34.618 14.5342Z" fill="#00A83B"/>
<path d="M34.9896 23.4846C35.0528 23.2077 35.1377 22.9534 35.2443 22.7223C35.3466 22.49 35.4746 22.2928 35.6282 22.1305C35.7808 21.9726 35.9588 21.8606 36.1621 21.7951C36.3697 21.7303 36.6056 21.728 36.8699 21.7883C36.8869 21.7923 36.9061 21.7967 36.9274 21.8015C36.9487 21.8064 36.9653 21.8124 36.9771 21.8197L36.7247 22.9256C36.7119 22.9226 36.6953 22.9167 36.675 22.9075C36.6579 22.9036 36.643 22.9001 36.6302 22.8974C36.4939 22.8662 36.3753 22.8749 36.2745 22.9238C36.1769 22.9777 36.0944 23.0642 36.0269 23.1833C35.9636 23.3034 35.9125 23.4487 35.8736 23.6191C35.8522 23.7129 35.8365 23.8013 35.8266 23.8842C35.8166 23.9671 35.815 24.043 35.8217 24.1118C35.8284 24.1806 35.8413 24.2418 35.8605 24.2955C35.8829 24.3544 35.913 24.3994 35.9507 24.4304C35.9918 24.4667 36.0421 24.4916 36.1018 24.5053C36.1998 24.5276 36.2896 24.5078 36.371 24.4456C36.4515 24.3878 36.5276 24.2998 36.5994 24.1817C36.6702 24.0678 36.7428 23.9364 36.8172 23.7874C36.8915 23.6385 36.9695 23.4836 37.051 23.3229C37.1325 23.1621 37.2233 23.0101 37.3232 22.8672C37.4231 22.7241 37.5367 22.5997 37.6639 22.4942C37.7901 22.3931 37.9344 22.3206 38.0969 22.2769C38.2626 22.2385 38.4498 22.2431 38.6587 22.2908C38.8888 22.3434 39.0758 22.4377 39.2197 22.5736C39.3678 22.7105 39.4756 22.8764 39.5433 23.0711C39.6099 23.2703 39.6409 23.488 39.6363 23.7246C39.6358 23.9622 39.6065 24.2088 39.5481 24.4646C39.4907 24.716 39.4116 24.9446 39.3109 25.1503C39.2091 25.3602 39.0834 25.5378 38.9337 25.683C38.7882 25.8291 38.6217 25.9301 38.4341 25.986C38.2498 26.047 38.042 26.0534 37.8109 26.0051L37.7342 25.9876L37.9852 24.8881L38.0299 24.8983C38.1279 24.9206 38.2195 24.9124 38.3046 24.8735C38.393 24.8399 38.4707 24.7747 38.5376 24.6778C38.6088 24.582 38.6624 24.4552 38.6984 24.2975C38.7344 24.1398 38.7501 24.0022 38.7456 23.8846C38.74 23.7712 38.7164 23.6784 38.6746 23.6061C38.6318 23.538 38.5721 23.4952 38.4954 23.4777C38.4016 23.4564 38.3166 23.4751 38.2404 23.5339C38.1633 23.5969 38.0888 23.6876 38.017 23.8057C37.9452 23.9238 37.8721 24.0574 37.7977 24.2063C37.7277 24.3562 37.6523 24.5094 37.5718 24.6659C37.4945 24.8276 37.4059 24.98 37.306 25.1231C37.2103 25.2672 37.0989 25.392 36.9717 25.4975C36.8487 25.6039 36.7087 25.6773 36.5515 25.7177C36.3933 25.7623 36.2141 25.7618 36.0138 25.716C35.6643 25.6363 35.402 25.489 35.2268 25.2741C35.0507 25.0635 34.9467 24.8021 34.9148 24.4899C34.8819 24.182 34.9069 23.8469 34.9896 23.4846Z" fill="#00A83B"/>
<path d="M33.1107 28.3508L36.6328 31.1595L34.4782 33.8613L33.7605 33.289L35.1832 31.5048L34.4245 30.8997L33.1734 32.4685L32.471 31.9084L33.7221 30.3396L32.3789 29.2684L33.1107 28.3508Z" fill="#00A83B"/>
<path d="M28.3569 33.1083L30.3115 37.1671L26.9617 38.7803L26.5634 37.9532L28.8557 36.8492L28.4886 36.0871L26.4858 37.0516L26.096 36.2422L28.0989 35.2777L27.6977 34.4447L25.364 35.5685L24.9657 34.7414L28.3569 33.1083Z" fill="#00A83B"/>
<path d="M22.0273 35.4101L22.0273 39.915L19.411 39.915C19.0788 39.915 18.8011 39.8517 18.5782 39.7249C18.3552 39.6025 18.1891 39.432 18.0798 39.2134C17.9662 38.9992 17.9093 38.7588 17.9093 38.4921C17.9093 38.2036 17.9772 37.9456 18.1126 37.7183C18.2437 37.4954 18.4296 37.3205 18.67 37.1937L17.765 35.4101L19.0765 35.4101L19.8241 36.997L20.8536 36.997L20.8536 35.4101L22.0273 35.4101ZM20.8536 37.8691L19.6405 37.8691C19.4788 37.8691 19.3498 37.9216 19.2536 38.0265C19.1531 38.1358 19.1028 38.2801 19.1028 38.4593C19.1028 38.5773 19.1247 38.6779 19.1683 38.7609C19.2121 38.844 19.2732 38.9074 19.3519 38.9511C19.4306 38.9992 19.5269 39.0232 19.6405 39.0232L20.8536 39.0232L20.8536 37.8691Z" fill="#00A83B"/>
<path d="M13.3322 33.7767C13.7773 33.991 14.1222 34.2518 14.3673 34.559C14.6066 34.8683 14.736 35.2193 14.7555 35.612C14.775 36.0047 14.6719 36.4354 14.4461 36.9041C14.2204 37.3728 13.9489 37.72 13.6315 37.9457C13.3124 38.1753 12.9583 38.291 12.5693 38.2929C12.1743 38.2968 11.7543 38.1916 11.3093 37.9772C10.8642 37.7629 10.522 37.5011 10.2829 37.1918C10.0378 36.8846 9.90549 36.5346 9.88598 36.1419C9.8645 35.7531 9.96663 35.3243 10.1924 34.8556C10.4181 34.3869 10.6906 34.0378 11.0097 33.8082C11.3289 33.5786 11.686 33.4618 12.0809 33.4579C12.4701 33.4561 12.8871 33.5623 13.3322 33.7767ZM12.9338 34.6038C12.7645 34.5222 12.6025 34.4757 12.4478 34.4643C12.2932 34.4529 12.1488 34.4756 12.0148 34.5324C11.8768 34.5872 11.7519 34.6751 11.6404 34.796C11.5288 34.9169 11.4302 35.066 11.3448 35.2433L11.2197 35.5032C11.1325 35.6844 11.0763 35.8563 11.0514 36.019C11.0265 36.1816 11.0355 36.334 11.0788 36.4761C11.1179 36.6163 11.1902 36.7433 11.2955 36.8571C11.4009 36.9709 11.5383 37.0686 11.7076 37.1501C11.8809 37.2336 12.0448 37.281 12.1994 37.2924C12.3542 37.3038 12.4984 37.2811 12.6325 37.2244C12.7666 37.1676 12.8894 37.0788 13.0011 36.9579C13.1127 36.8369 13.212 36.6859 13.2993 36.5047L13.4245 36.2447C13.5099 36.0675 13.565 35.8976 13.5899 35.7349C13.615 35.5723 13.6078 35.4208 13.5686 35.2806C13.5294 35.1404 13.4571 35.0134 13.3517 34.8997C13.2465 34.7858 13.1071 34.6872 12.9338 34.6038Z" fill="#00A83B"/>
<path d="M9.19727 31.0945L5.67513 33.9033L4.50186 32.4319C4.19645 32.0491 4.00219 31.6757 3.91874 31.3117C3.83268 30.9443 3.86497 30.5886 4.01563 30.2447C4.16022 29.9002 4.43415 29.5671 4.83743 29.2455C5.23743 28.9266 5.62481 28.7323 5.99973 28.6625C6.36841 28.5921 6.72235 28.6397 7.06153 28.8055C7.39776 28.9678 7.71858 29.2404 8.02382 29.6232L9.19727 31.0945ZM7.74759 30.7492L7.31432 30.2058C7.19989 30.0623 7.07989 29.9539 6.95432 29.8806C6.82874 29.8074 6.69809 29.7662 6.56235 29.7571C6.42645 29.748 6.28677 29.7727 6.14333 29.8312C5.99989 29.8897 5.85284 29.9789 5.70251 30.0989L5.48727 30.2706C5.33333 30.3932 5.21202 30.518 5.123 30.6448C5.03415 30.7717 4.9789 30.9023 4.95759 31.0368C4.93628 31.1713 4.94726 31.3078 4.99071 31.4465C5.03431 31.5852 5.11317 31.7263 5.22776 31.8698L5.66104 32.4132L7.74759 30.7492Z" fill="#00A83B"/>
<path d="M5.43457 25.1724L1.0426 26.1748L0.215391 22.55L1.11031 22.3458L1.67654 24.8262L2.50113 24.638L2.00654 22.4707L2.88244 22.2709L3.37703 24.438L4.2785 24.2323L3.70211 21.7071L4.59703 21.5028L5.43457 25.1724Z" fill="#00A83B"/>
<path d="M5.12905 16.516C5.06577 16.7929 4.98085 17.0472 4.87429 17.2783C4.772 17.5106 4.64397 17.7078 4.49036 17.8701C4.33774 18.028 4.1597 18.14 3.95643 18.2055C3.74888 18.2703 3.51282 18.2726 3.24872 18.2123C3.23167 18.2083 3.21249 18.2039 3.19118 18.1991C3.16987 18.1942 3.15331 18.1882 3.14151 18.1809L3.3938 17.075C3.40659 17.078 3.42315 17.0839 3.44348 17.0931C3.46052 17.097 3.47544 17.1005 3.48823 17.1032C3.62462 17.1344 3.74331 17.1257 3.84413 17.0768C3.94167 17.0229 4.02413 16.9364 4.09167 16.8173C4.15495 16.6972 4.2061 16.5519 4.24495 16.3814C4.26642 16.2877 4.282 16.1993 4.292 16.1164C4.302 16.0336 4.30364 15.9577 4.29692 15.8888C4.2902 15.8201 4.27724 15.7588 4.25806 15.705C4.23561 15.6462 4.20561 15.6013 4.16774 15.5701C4.12675 15.5339 4.07642 15.509 4.01675 15.4954C3.91872 15.4729 3.82905 15.4929 3.74757 15.5549C3.66708 15.6127 3.59101 15.7008 3.51921 15.819C3.44823 15.9327 3.37577 16.0642 3.30134 16.2132C3.22708 16.3621 3.14905 16.517 3.06757 16.6777C2.98593 16.8385 2.89528 16.9905 2.79544 17.1334C2.69544 17.2765 2.58184 17.4009 2.45462 17.5064C2.32839 17.6075 2.18413 17.68 2.02167 17.7237C1.85593 17.7621 1.66872 17.7575 1.45987 17.7098C1.2297 17.6572 1.04266 17.5629 0.898885 17.427C0.750852 17.2901 0.642983 17.1242 0.575278 16.9295C0.508557 16.7303 0.477573 16.5126 0.482327 16.276C0.482655 16.0383 0.512162 15.7918 0.570523 15.536C0.6279 15.2845 0.706918 15.056 0.807737 14.8503C0.909376 14.6405 1.03511 14.4627 1.18479 14.3177C1.33036 14.1714 1.49692 14.0705 1.68446 14.0147C1.86872 13.9536 2.07659 13.9472 2.30757 13.9954L2.3843 14.0129L2.13331 15.1126L2.08856 15.1023C1.99069 15.08 1.89905 15.0882 1.81397 15.127C1.72561 15.1608 1.6479 15.2259 1.58102 15.3227C1.5097 15.4186 1.4561 15.5454 1.42019 15.7031C1.38413 15.8608 1.36839 15.9985 1.37298 16.116C1.37856 16.2295 1.40216 16.3223 1.44397 16.3945C1.48675 16.4626 1.54643 16.5054 1.62315 16.5229C1.71692 16.5442 1.80183 16.5255 1.87806 16.4667C1.95528 16.4037 2.0297 16.3131 2.10151 16.1949C2.17331 16.0768 2.24642 15.9432 2.32085 15.7942C2.39085 15.6444 2.46626 15.4911 2.54675 15.3347C2.62397 15.1729 2.71266 15.0206 2.81249 14.8775C2.90823 14.7334 3.0197 14.6086 3.14692 14.5031C3.26987 14.3967 3.40987 14.3232 3.56708 14.2829C3.72528 14.2383 3.90446 14.2388 4.10479 14.2845C4.45429 14.3644 4.71659 14.5116 4.89167 14.7265C5.0679 14.937 5.17183 15.1985 5.2038 15.5106C5.23659 15.8186 5.21167 16.1537 5.12905 16.516Z" fill="#00A83B"/>
<path d="M8.11994 10.3826C7.94289 10.6047 7.75601 10.7969 7.55961 10.959C7.36666 11.1239 7.16585 11.246 6.95699 11.3255C6.75093 11.4016 6.54207 11.4252 6.33043 11.3962C6.11535 11.3644 5.90175 11.2641 5.68994 11.0951C5.67617 11.0841 5.66076 11.0718 5.64371 11.0582C5.62666 11.0446 5.61437 11.0319 5.60683 11.0205L6.31421 10.1334C6.32437 10.1416 6.33667 10.1542 6.35109 10.1713C6.3647 10.1823 6.37666 10.1918 6.38699 10.2C6.49634 10.2872 6.60699 10.3306 6.71896 10.3305C6.83027 10.3242 6.94207 10.2819 7.0547 10.2041C7.16371 10.1232 7.27289 10.0146 7.38191 9.87784C7.44175 9.80259 7.49421 9.72981 7.53929 9.65948C7.58421 9.58915 7.61863 9.52145 7.6424 9.45653C7.66617 9.39161 7.68109 9.33079 7.68716 9.27423C7.69257 9.21128 7.68486 9.15784 7.66437 9.11341C7.64306 9.06292 7.60863 9.01866 7.56076 8.98046C7.48207 8.91784 7.39257 8.89669 7.29224 8.91735C7.1947 8.93456 7.08797 8.98079 6.97191 9.0562C6.85879 9.128 6.73634 9.21489 6.6047 9.31686C6.47306 9.41866 6.33568 9.5244 6.19256 9.63391C6.04929 9.74341 5.90158 9.84079 5.74961 9.92636C5.59748 10.0119 5.44109 10.0747 5.28076 10.1146C5.12306 10.151 4.96175 10.1536 4.79634 10.1224C4.63043 10.0852 4.46371 9.99981 4.29634 9.8662C4.11175 9.71899 3.98404 9.55292 3.91355 9.368C3.83945 9.18046 3.8142 8.98423 3.83781 8.77932C3.8642 8.57112 3.93076 8.36128 4.03765 8.1503C4.14109 7.93636 4.27453 7.72686 4.43814 7.52177C4.59879 7.32013 4.76929 7.1485 4.94929 7.00702C5.13207 6.86194 5.3224 6.75653 5.52027 6.69063C5.7147 6.6221 5.90863 6.60341 6.10191 6.6344C6.29437 6.65948 6.48437 6.74374 6.67158 6.88751L6.73322 6.93669L6.02994 7.8185L5.99404 7.78981C5.91552 7.72719 5.82945 7.69489 5.73584 7.69292C5.64158 7.68489 5.54338 7.70997 5.44109 7.76817C5.33535 7.82358 5.23207 7.91456 5.13109 8.04096C5.03027 8.16751 4.95634 8.28473 4.90945 8.3926C4.86519 8.49719 4.84634 8.59112 4.85257 8.6744C4.86158 8.75423 4.89683 8.81866 4.9583 8.86768C5.03355 8.92768 5.11814 8.94768 5.2124 8.92768C5.30929 8.9044 5.41568 8.85505 5.53175 8.77981C5.64765 8.70456 5.77142 8.61587 5.90306 8.51391C6.03125 8.40931 6.16552 8.3039 6.30601 8.198C6.44584 8.08571 6.59175 7.98686 6.74388 7.90128C6.89257 7.81292 7.04716 7.74899 7.20748 7.70915C7.36453 7.66653 7.52257 7.66112 7.68158 7.69292C7.84355 7.72145 8.0047 7.79964 8.16535 7.92784C8.44568 8.15128 8.61798 8.39784 8.68257 8.66735C8.74994 8.93358 8.73027 9.21423 8.62355 9.50932C8.51945 9.80096 8.35175 10.0921 8.11994 10.3826Z" fill="#00A83B"/>
<path d="M11.2165 7.15527L10.7861 2.36249L12.0563 1.75085L15.5352 5.0756L14.4068 5.61888L13.826 5.03249L12.2073 5.81216L12.3035 6.63183L11.2165 7.15527ZM12.0801 4.89806L13.1848 4.36609L12.4827 3.64888C12.4461 3.61314 12.4009 3.56937 12.3468 3.51773C12.295 3.46035 12.2401 3.40183 12.1824 3.34232C12.1266 3.27691 12.0709 3.2115 12.0152 3.14626C11.9594 3.08085 11.9084 3.02544 11.8622 2.9797L11.8207 2.9997C11.8411 3.082 11.8583 3.17806 11.8722 3.28773C11.8902 3.3956 11.9061 3.50429 11.9202 3.61413C11.9381 3.72183 11.9524 3.81691 11.9629 3.89921L12.0801 4.89806Z" fill="#00A83B"/>
<path d="M20.0001 22.5265C20.9618 22.5265 21.7414 21.7469 21.7414 20.7852C21.7414 19.8236 20.9618 19.0439 20.0001 19.0439C19.0384 19.0439 18.2588 19.8236 18.2588 20.7852C18.2588 21.7469 19.0384 22.5265 20.0001 22.5265Z" fill="#2E3639"/>
<path d="M20 9C13.9249 9 9 13.9249 9 20C9 26.0749 13.9249 31 20 31C26.0749 31 31 26.0749 31 20C31 13.9249 26.0749 9 20 9ZM20 10.7959C23.9316 10.7959 27.2853 13.2618 28.6042 16.7308C28.5901 17.2227 28.4564 17.787 27.9455 17.9375C25.7567 18.7794 23.9285 16.9693 19.8878 16.9132C15.8468 16.9693 14.0369 18.7794 11.8483 17.9375C11.4847 17.8304 11.3148 17.5136 11.2438 17.1624C12.4401 13.4684 15.9071 10.7959 20 10.7959ZM22.4132 20.7856C22.4132 22.1186 21.333 23.199 20 23.199C18.667 23.199 17.5868 22.1186 17.5868 20.7856C17.5868 19.4529 18.6672 18.3724 20 18.3724C21.3328 18.3724 22.4132 19.4531 22.4132 20.7856ZM13.5984 25.8368C13.3157 25.9653 13.015 25.8549 12.7343 25.6467C11.7075 24.3274 11.0306 22.7227 10.8471 20.97C11.0959 20.715 11.4873 20.6098 12.0287 20.7856C13.2548 21.1834 14.8333 25.2754 13.5984 25.8368ZM23.2776 28.5309C23.2032 28.5804 23.1493 28.6244 23.1128 28.6632C22.1404 29.013 21.0927 29.2041 20 29.2041C18.7599 29.2041 17.5776 28.9571 16.498 28.5127C15.2623 27.6791 15.8235 26.9511 16.4362 25.8927C17.0535 24.8264 19.8878 25.1634 19.8878 25.1634C19.8878 25.1634 22.7401 24.8266 23.3574 25.8927C23.975 26.9593 24.55 27.6897 23.2776 28.5309ZM27.7717 24.9284C27.3654 25.4476 26.7555 26.0841 26.2108 25.8368C24.9764 25.2754 26.5558 21.1834 27.7818 20.7856C28.4599 20.5661 28.9023 20.7856 29.1247 21.19C28.9489 22.5522 28.4757 23.8201 27.7717 24.9284Z" fill="#2E3639"/>
	</symbol>
	<symbol id="menu" stroke="currentcolor" stroke-width="2" stroke-linecap="square" stroke-linejoin="square" viewBox="0 0 24 24">
		<path d="M3 12h18M3 6h18M3 18h18"/>
	</symbol>
	<symbol id="close" stroke="currentcolor" stroke-width="2" stroke-linecap="square" stroke-linejoin="square" viewBox="0 0 24 24">
		<path d="M18 6 6 18M6 6l12 12"/>
	</symbol>
	<symbol id="telegram" width="24" height="24" viewBox="0 0 24 24" fill="none">
		<rect width="24" height="24" rx="12" fill="#27A6E5"/>
		<path d="M16.8004 7.56153L14.9971 16.9756C14.9971 16.9756 14.7448 17.6283 14.0517 17.3152L9.89114 14.0117L9.87184 14.002C10.4338 13.4794 14.7918 9.42179 14.9823 9.23787C15.2771 8.95301 15.0941 8.78343 14.7518 8.99861L8.31447 13.232L5.83097 12.3667C5.83097 12.3667 5.44015 12.2227 5.40255 11.9097C5.36445 11.5961 5.84384 11.4265 5.84384 11.4265L15.9683 7.31356C15.9683 7.31356 16.8004 6.93495 16.8004 7.56153V7.56153Z" fill="white"/>
	</symbol>
	<symbol id="viber" width="24" height="24" viewBox="0 0 24 24" fill="none">
		<rect width="24" height="24" rx="12" fill="#7C509A"/>
		<path d="M15.7524 5.72794C13.4654 5.29121 11.0906 5.29121 8.80366 5.72794C7.79215 5.9463 6.51675 7.16915 6.29686 8.12996C5.90105 10.0079 5.90105 11.9295 6.29686 13.8075C6.56073 14.7683 7.83612 15.9911 8.80366 16.2095C8.84764 16.2095 8.89162 16.2532 8.89162 16.2968V19.0482C8.89162 19.1793 9.06754 19.2666 9.1555 19.1356L10.4749 17.7817C10.4749 17.7817 11.5304 16.6899 11.7063 16.5152C11.7063 16.5152 11.7503 16.4715 11.7942 16.4715C13.1136 16.5152 14.477 16.3842 15.7963 16.1658C16.8079 15.9474 18.0832 14.7246 18.3031 13.7638C18.699 11.8858 18.699 9.96423 18.3031 8.08629C18.0393 7.16915 16.7639 5.9463 15.7524 5.72794ZM15.7963 13.9385C15.5764 14.3752 15.3126 14.7246 14.8728 14.943C14.7408 14.9866 14.6089 15.0303 14.477 15.074C14.301 15.0303 14.1691 14.9866 14.0372 14.943C12.6298 14.3752 11.3105 13.5891 10.255 12.4536C9.68325 11.7985 9.19948 11.0561 8.80366 10.2699C8.62775 9.87688 8.45183 9.5275 8.3199 9.13444C8.18796 8.78506 8.40785 8.43567 8.62775 8.17363C8.84764 7.91159 9.11152 7.7369 9.41937 7.60588C9.63927 7.47486 9.85916 7.56221 10.0351 7.7369C10.3869 8.17363 10.7387 8.61036 11.0026 9.09077C11.1785 9.39648 11.1346 9.74586 10.8267 9.96423C10.7387 10.0079 10.6948 10.0516 10.6068 10.1389C10.5628 10.1826 10.4749 10.2263 10.4309 10.3136C10.3429 10.4446 10.3429 10.5757 10.3869 10.7067C10.7387 11.7112 11.3984 12.4973 12.4099 12.934C12.5859 13.0213 12.7178 13.065 12.9377 13.065C13.2456 13.0213 13.3775 12.672 13.5974 12.4973C13.8173 12.3226 14.0812 12.3226 14.345 12.4536C14.5649 12.5846 14.7848 12.7593 15.0487 12.934C15.2686 13.1087 15.4885 13.2397 15.7084 13.4144C15.8403 13.5018 15.8843 13.7201 15.7963 13.9385ZM13.9492 10.663C13.8613 10.663 13.9052 10.663 13.9492 10.663C13.7733 10.663 13.7293 10.5757 13.6853 10.4446C13.6853 10.3573 13.6853 10.2263 13.6414 10.1389C13.5974 9.96423 13.5094 9.78954 13.3335 9.65852C13.2456 9.61484 13.1576 9.57117 13.0696 9.5275C12.9377 9.48383 12.8497 9.48383 12.7178 9.48383C12.5859 9.44015 12.5419 9.35281 12.5419 9.22179C12.5419 9.13444 12.6738 9.04709 12.7618 9.04709C13.4654 9.09077 13.9932 9.48382 14.0812 10.3136C14.0812 10.3573 14.0812 10.4446 14.0812 10.4883C14.0812 10.5757 14.0372 10.663 13.9492 10.663ZM13.5094 8.74138C13.2895 8.65404 13.0696 8.56669 12.8058 8.52302C12.7178 8.52302 12.5859 8.47934 12.4979 8.47934C12.366 8.47934 12.278 8.392 12.322 8.26098C12.322 8.12996 12.4099 8.04261 12.5419 8.08629C12.9817 8.12996 13.3775 8.21731 13.7733 8.392C14.5649 8.78506 15.0047 9.44015 15.1367 10.3136C15.1367 10.3573 15.1367 10.401 15.1367 10.4446C15.1367 10.532 15.1367 10.6193 15.1367 10.7503C15.1367 10.794 15.1367 10.8377 15.1367 10.8814C15.0927 11.0561 14.7848 11.0997 14.7408 10.8814C14.7408 10.8377 14.6969 10.7503 14.6969 10.7067C14.6969 10.3136 14.6089 9.92056 14.433 9.57117C14.1691 9.17811 13.8613 8.91608 13.5094 8.74138ZM15.8843 11.3618C15.7524 11.3618 15.6644 11.2308 15.6644 11.0997C15.6644 10.8377 15.6204 10.5757 15.5764 10.3136C15.4005 8.91607 14.2571 7.78057 12.8937 7.56221C12.6738 7.51854 12.4539 7.51854 12.278 7.47486C12.1461 7.47486 11.9702 7.47486 11.9262 7.30017C11.8822 7.16915 12.0141 7.03813 12.1461 7.03813C12.1901 7.03813 12.234 7.03813 12.234 7.03813C14.0372 7.08181 12.322 7.03813 12.234 7.03813C14.0812 7.08181 15.6204 8.30465 15.9283 10.1389C15.9723 10.4446 16.0162 10.7503 16.0162 11.0997C16.1042 11.2308 16.0162 11.3618 15.8843 11.3618Z" fill="white"/>
	</symbol>
	<symbol id="whatsapp" width="24" height="24" viewBox="0 0 24 24" fill="none">
		<rect width="24" height="24" rx="12" fill="#48C95F"/>
		<path d="M16.7561 7.23789C15.5707 6.05664 13.9902 5.40039 12.322 5.40039C8.85366 5.40039 6.0439 8.20039 6.0439 11.6566C6.0439 12.7504 6.35122 13.8441 6.87805 14.7629L6 18.0004L9.33659 17.1254C10.2585 17.6066 11.2683 17.8691 12.322 17.8691C15.7902 17.8691 18.6 15.0691 18.6 11.6129C18.5561 9.99414 17.9415 8.41914 16.7561 7.23789ZM15.3512 13.8879C15.2195 14.2379 14.6049 14.5879 14.2976 14.6316C14.0341 14.6754 13.6829 14.6754 13.3317 14.5879C13.1122 14.5004 12.8049 14.4129 12.4537 14.2379C10.8732 13.5816 9.86342 12.0066 9.77561 11.8754C9.68781 11.7879 9.11707 11.0441 9.11707 10.2566C9.11707 9.46914 9.51219 9.11914 9.6439 8.94414C9.77561 8.76914 9.95122 8.76914 10.0829 8.76914C10.1707 8.76914 10.3024 8.76914 10.3902 8.76914C10.478 8.76914 10.6098 8.72539 10.7415 9.03164C10.8732 9.33789 11.1805 10.1254 11.2244 10.1691C11.2683 10.2566 11.2683 10.3441 11.2244 10.4316C11.1805 10.5191 11.1366 10.6066 11.0488 10.6941C10.961 10.7816 10.8732 10.9129 10.8293 10.9566C10.7415 11.0441 10.6537 11.1316 10.7415 11.2629C10.8293 11.4379 11.1366 11.9191 11.6195 12.3566C12.2341 12.8816 12.7171 13.0566 12.8927 13.1441C13.0683 13.2316 13.1561 13.1879 13.2439 13.1004C13.3317 13.0129 13.639 12.6629 13.7268 12.4879C13.8146 12.3129 13.9463 12.3566 14.078 12.4004C14.2098 12.4441 15 12.8379 15.1317 12.9254C15.3073 13.0129 15.3951 13.0566 15.439 13.1004C15.4829 13.2316 15.4829 13.5379 15.3512 13.8879Z" fill="white"/>
	</symbol>
</svg>