<svg width="239" height="24" viewBox="0 0 239 24" fill="none" xmlns="http://www.w3.org/2000/svg">
<path d="M32 22L41 2L50 22L41 17.6716L32 22Z" fill="#239038"/>
<path d="M0.72 4.728H14.592V7.896H9.432V18H5.88V7.896H0.72V4.728ZM17.1527 4.728H25.0007C26.6167 4.728 27.9447 5.224 28.9847 6.216C30.0247 7.192 30.5447 8.456 30.5447 10.008C30.5447 11.96 29.7447 13.416 28.1447 14.376L30.1607 18H26.3207L24.8087 15.168H20.6807V18H17.1527V4.728ZM20.6807 7.944V11.952H24.8567C25.4967 11.952 26.0087 11.784 26.3927 11.448C26.7927 11.112 26.9927 10.632 26.9927 10.008C26.9927 9.384 26.7927 8.888 26.3927 8.52C26.0087 8.136 25.4967 7.944 24.8567 7.944H20.6807Z" fill="#2E3639"/>
<path d="M52.128 4.728H55.344L62.448 12.744V4.728H65.952V18H62.712L55.608 9.984V18H52.128V4.728ZM82.4141 6.528L80.7101 9.12C79.2861 8.08 77.5501 7.56 75.5021 7.56C73.6621 7.56 72.7421 7.92 72.7421 8.64C72.7421 8.896 72.8461 9.072 73.0541 9.168C73.2781 9.248 73.6301 9.32 74.1101 9.384L77.9741 9.816C81.1261 10.2 82.7021 11.568 82.7021 13.92C82.7021 15.376 82.0541 16.48 80.7581 17.232C79.4781 17.968 77.7901 18.336 75.6941 18.336C74.2861 18.336 73.0301 18.168 71.9261 17.832C70.8381 17.48 69.7581 16.896 68.6861 16.08L70.3421 13.344C72.1501 14.624 74.0381 15.264 76.0061 15.264C76.9661 15.264 77.7501 15.16 78.3581 14.952C78.9661 14.728 79.2701 14.4 79.2701 13.968C79.2701 13.712 79.2061 13.528 79.0781 13.416C78.9661 13.304 78.7101 13.232 78.3101 13.2L73.7501 12.672C72.2781 12.496 71.1581 12.096 70.3901 11.472C69.6381 10.832 69.2621 9.896 69.2621 8.664C69.2621 7.272 69.8461 6.216 71.0141 5.496C72.1821 4.776 73.6781 4.416 75.5021 4.416C78.2861 4.416 80.5901 5.12 82.4141 6.528ZM85.4899 18V4.728H97.8499V7.92H89.0179V9.96H96.7939V13.152H89.0179V18H85.4899ZM100.366 4.728H112.582V7.92H103.894V9.672H111.694V12.864H103.894V14.736H112.894V18H100.366V4.728ZM115.735 4.728H123.583C125.199 4.728 126.527 5.224 127.567 6.216C128.607 7.192 129.127 8.456 129.127 10.008C129.127 11.96 128.327 13.416 126.727 14.376L128.743 18H124.903L123.391 15.168H119.263V18H115.735V4.728ZM119.263 7.944V11.952H123.439C124.079 11.952 124.591 11.784 124.975 11.448C125.375 11.112 125.575 10.632 125.575 10.008C125.575 9.384 125.375 8.888 124.975 8.52C124.591 8.136 124.079 7.944 123.439 7.944H119.263Z" fill="#2E3639"/>
<path d="M143.664 8.52C142.928 9.24 142.56 10.192 142.56 11.376C142.56 12.56 142.928 13.52 143.664 14.256C144.416 14.976 145.36 15.336 146.496 15.336C147.616 15.336 148.544 14.976 149.28 14.256C150.032 13.52 150.408 12.56 150.408 11.376C150.408 10.192 150.032 9.24 149.28 8.52C148.544 7.784 147.616 7.416 146.496 7.416C145.36 7.416 144.416 7.784 143.664 8.52ZM151.752 6.384C153.224 7.696 153.96 9.36 153.96 11.376C153.96 13.392 153.224 15.056 151.752 16.368C150.28 17.68 148.528 18.336 146.496 18.336C144.464 18.336 142.712 17.68 141.24 16.368C139.768 15.056 139.032 13.392 139.032 11.376C139.032 9.36 139.768 7.696 141.24 6.384C142.712 5.072 144.464 4.416 146.496 4.416C148.528 4.416 150.28 5.072 151.752 6.384ZM156.817 4.728H163.801C165.657 4.728 167.313 5.36 168.769 6.624C170.225 7.888 170.953 9.464 170.953 11.352C170.953 13.24 170.225 14.824 168.769 16.104C167.313 17.368 165.657 18 163.801 18H156.817V4.728ZM160.345 7.92V14.76H163.849C164.841 14.76 165.681 14.432 166.369 13.776C167.073 13.12 167.425 12.312 167.425 11.352C167.425 10.392 167.073 9.584 166.369 8.928C165.681 8.256 164.841 7.92 163.849 7.92H160.345ZM173.755 4.728H185.971V7.92H177.283V9.672H185.083V12.864H177.283V14.736H186.283V18H173.755V4.728ZM202.378 6.528L200.674 9.12C199.25 8.08 197.514 7.56 195.466 7.56C193.626 7.56 192.706 7.92 192.706 8.64C192.706 8.896 192.81 9.072 193.018 9.168C193.242 9.248 193.594 9.32 194.074 9.384L197.938 9.816C201.09 10.2 202.666 11.568 202.666 13.92C202.666 15.376 202.018 16.48 200.722 17.232C199.442 17.968 197.754 18.336 195.658 18.336C194.25 18.336 192.994 18.168 191.89 17.832C190.802 17.48 189.722 16.896 188.65 16.08L190.306 13.344C192.114 14.624 194.002 15.264 195.97 15.264C196.93 15.264 197.714 15.16 198.322 14.952C198.93 14.728 199.234 14.4 199.234 13.968C199.234 13.712 199.17 13.528 199.042 13.416C198.93 13.304 198.674 13.232 198.274 13.2L193.714 12.672C192.242 12.496 191.122 12.096 190.354 11.472C189.602 10.832 189.226 9.896 189.226 8.664C189.226 7.272 189.81 6.216 190.978 5.496C192.146 4.776 193.642 4.416 195.466 4.416C198.25 4.416 200.554 5.12 202.378 6.528ZM218.707 6.528L217.003 9.12C215.579 8.08 213.843 7.56 211.795 7.56C209.955 7.56 209.035 7.92 209.035 8.64C209.035 8.896 209.139 9.072 209.347 9.168C209.571 9.248 209.923 9.32 210.403 9.384L214.267 9.816C217.419 10.2 218.995 11.568 218.995 13.92C218.995 15.376 218.347 16.48 217.051 17.232C215.771 17.968 214.083 18.336 211.987 18.336C210.579 18.336 209.323 18.168 208.219 17.832C207.131 17.48 206.051 16.896 204.979 16.08L206.635 13.344C208.443 14.624 210.331 15.264 212.299 15.264C213.259 15.264 214.043 15.16 214.651 14.952C215.259 14.728 215.563 14.4 215.563 13.968C215.563 13.712 215.499 13.528 215.371 13.416C215.259 13.304 215.003 13.232 214.603 13.2L210.043 12.672C208.571 12.496 207.451 12.096 206.683 11.472C205.931 10.832 205.555 9.896 205.555 8.664C205.555 7.272 206.139 6.216 207.307 5.496C208.475 4.776 209.971 4.416 211.795 4.416C214.579 4.416 216.883 5.12 218.707 6.528ZM228.85 7.872L226.738 12.984H231.418L229.402 7.872H228.85ZM226.594 4.728H231.73L237.37 18H233.626L232.786 16.056H225.442L224.626 18H220.834L226.594 4.728Z" fill="#2E3639"/>
</svg>
